<svg xmlns="http://www.w3.org/2000/svg" viewBox="0 0 200 200">
  <!-- Background circle -->
  <circle cx="100" cy="100" r="80" fill="#f5f5f5"/>
  
  <!-- Box body -->
  <path d="M50 80 L100 110 L150 80 L150 140 L100 170 L50 140 Z" fill="#d4a574"/>
  <path d="M50 80 L100 110 L100 170 L50 140 Z" fill="#c49a6c"/>
  <path d="M100 110 L150 80 L150 140 L100 170 Z" fill="#e0b88a"/>
  
  <!-- Box top flaps -->
  <path d="M50 80 L75 60 L100 80 L100 110 L50 80 Z" fill="#f0d4b0"/>
  <path d="M100 80 L125 60 L150 80 L100 110 Z" fill="#e8c89c"/>
  
  <!-- Decorative tape -->
  <path d="M75 80 L100 95 L125 80" stroke="#fff8e7" stroke-width="8" fill="none"/>
  
  <!-- Small decorative items (representing contents spilling out) -->
  <ellipse cx="70" cy="55" rx="8" ry="5" fill="#f0d4b0"/>
  <ellipse cx="85" cy="48" rx="6" ry="4" fill="#e8c89c"/>
  <ellipse cx="100" cy="50" rx="7" ry="4" fill="#f0d4b0"/>
  <ellipse cx="115" cy="52" rx="6" ry="4" fill="#e8c89c"/>
  <ellipse cx="130" cy="55" rx="8" ry="5" fill="#f0d4b0"/>
  
  <ellipse cx="78" cy="42" rx="5" ry="3" fill="#e8c89c"/>
  <ellipse cx="95" cy="38" rx="6" ry="4" fill="#f0d4b0"/>
  <ellipse cx="108" cy="40" rx="5" ry="3" fill="#e8c89c"/>
  <ellipse cx="122" cy="44" rx="6" ry="4" fill="#f0d4b0"/>
</svg>
